<svg width="2000" height="2000" version="1.1" xmlns="http://www.w3.org/2000/svg" desc="Created with imagetracer.js version 1.2.6" ><path fill="rgb(0,0,0)" stroke="rgb(0,0,0)" stroke-width="1" opacity="0" d="M 0 0 L 2000 0 L 2000 2000 L 0 2000 L 0 0 Z M 960 28 L 959 29 L 940 29 L 939 30 L 914 31 L 913 32 L 904 32 L 903 33 L 894 33 L 877 36 L 870 36 L 869 37 L 849 39 L 820 45 L 815 45 L 782 52 L 712 71 Q 662 86 617 106 Q 445 181 321 304 Q 193 427 114 599 Q 75 682 52 782 L 41 837 L 37 869 L 36 870 L 34 893 L 33 894 L 33 903 L 32 904 L 32 913 L 31 914 L 30 939 L 29 940 L 29 959 L 28 960 L 28 1042 L 29 1043 L 29 1062 L 30 1063 L 30 1076 L 31 1077 L 33 1108 L 34 1109 L 34 1116 L 35 1117 L 39 1153 L 47 1197 L 60 1252 L 71 1290 L 91 1348 Q 129 1447 184 1531 Q 237 1612 304 1681 Q 427 1808 599 1887 Q 682 1926 782 1949 L 837 1960 L 869 1964 L 870 1965 L 893 1967 L 894 1968 L 903 1968 L 904 1969 L 913 1969 L 914 1970 L 939 1971 L 940 1972 L 959 1972 L 960 1973 L 1042 1973 L 1043 1972 L 1062 1972 L 1063 1971 L 1076 1971 L 1077 1970 L 1108 1968 L 1109 1967 L 1116 1967 L 1117 1966 L 1153 1962 L 1197 1954 L 1252 1941 L 1290 1930 L 1348 1910 Q 1447 1872 1531 1817 Q 1612 1764 1681 1697 Q 1808 1574 1887 1403 Q 1926 1319 1949 1220 L 1960 1165 L 1964 1133 L 1965 1132 L 1967 1109 L 1968 1108 L 1968 1099 L 1969 1098 L 1969 1089 L 1970 1088 L 1971 1063 L 1972 1062 L 1972 1043 L 1973 1042 L 1973 960 L 1972 959 L 1972 940 L 1971 939 L 1971 926 L 1970 925 L 1968 894 L 1967 893 L 1967 886 L 1966 885 L 1962 849 L 1954 805 L 1941 750 L 1930 712 L 1910 654 Q 1872 554 1817 471 Q 1764 389 1697 321 Q 1622 244 1531 184 Q 1447 129 1348 91 L 1290 71 L 1252 60 L 1197 47 L 1153 39 L 1117 35 L 1116 34 L 1109 34 L 1108 33 L 1077 31 L 1076 30 L 1063 30 L 1062 29 L 1043 29 L 1042 28 L 960 28 Z " /><path fill="rgb(0,0,0)" stroke="rgb(0,0,0)" stroke-width="1" opacity="0" d="M 985.5 125 L 1014.5 125 L 1015.5 126 L 1043.5 126 L 1044.5 127 L 1073.5 128 L 1074.5 129 L 1084.5 129 L 1085.5 130 L 1118.5 133 L 1119.5 134 L 1125.5 134 L 1126.5 135 L 1161.5 140 L 1199.5 148 L 1248.5 161 L 1291.5 175 L 1340.5 194 Q 1517.3 270.7 1639 402.5 Q 1699.5 467 1747 544.5 Q 1788.1 611.4 1818 689.5 L 1843 765.5 L 1852 800.5 L 1862 849.5 L 1866 880.5 L 1867 881.5 L 1868 896.5 L 1869 897.5 L 1871 925.5 L 1872 926.5 L 1873 955.5 L 1874 956.5 L 1874 984.5 L 1875 985.5 L 1875 1014.5 L 1874 1015.5 L 1873 1060.5 L 1872 1061.5 L 1872 1073.5 L 1871 1074.5 L 1869 1102.5 L 1868 1103.5 L 1868 1110.5 L 1867 1111.5 L 1864 1138.5 L 1856 1181.5 L 1846 1223.5 L 1835 1261.5 Q 1820.8 1306.3 1803 1347.5 Q 1726.7 1519.7 1597.5 1639 Q 1533 1699.5 1455.5 1747 Q 1388.6 1788.1 1310.5 1818 L 1234.5 1843 L 1199.5 1852 L 1150.5 1862 L 1119.5 1866 L 1118.5 1867 L 1103.5 1868 L 1102.5 1869 L 1074.5 1871 L 1073.5 1872 L 1044.5 1873 L 1043.5 1874 L 1015.5 1874 L 1014.5 1875 L 985.5 1875 L 984.5 1874 L 939.5 1873 L 938.5 1872 L 926.5 1872 L 925.5 1871 L 897.5 1869 L 896.5 1868 L 889.5 1868 L 888.5 1867 L 861.5 1864 L 818.5 1856 L 776.5 1846 L 738.5 1835 Q 693.7 1820.8 652.5 1803 Q 480.3 1726.7 361 1597.5 Q 300.5 1533 253 1455.5 Q 211.9 1388.6 182 1310.5 L 157 1234.5 L 148 1199.5 L 138 1150.5 L 134 1119.5 L 133 1118.5 L 132 1103.5 L 131 1102.5 L 129 1074.5 L 128 1073.5 L 127 1044.5 L 126 1043.5 L 126 1015.5 L 125 1014.5 L 125 985.5 L 126 984.5 L 127 939.5 L 128 938.5 L 128 926.5 L 129 925.5 L 131 897.5 L 132 896.5 L 132 889.5 L 133 888.5 L 136 861.5 L 144 818.5 L 154 776.5 L 165 738.5 Q 179.2 693.7 197 652.5 Q 273.3 480.3 402.5 361 Q 511.4 257.9 659.5 194 Q 697.5 178 738.5 165 L 776.5 154 L 818.5 144 L 861.5 136 L 867.5 136 L 889.5 132 L 896.5 132 L 897.5 131 L 925.5 129 L 926.5 128 L 938.5 128 L 939.5 127 L 984.5 126 L 985.5 125 Z M 1579 659 L 1578 660 L 1546 661 L 1528 664 L 1529 753 L 1530 754 L 1530 802 L 1531 803 L 1531 851 L 1532 852 L 1532 900 L 1533 901 L 1533 949 L 1534 950 L 1534 998 L 1535 999 L 1535 1018 L 1553 1021 L 1562 1021 L 1563 1022 L 1606 1022 L 1607 1021 L 1616 1021 L 1633 1018 L 1633 1008 L 1634 1007 L 1634 959 L 1635 958 L 1635 910 L 1636 909 L 1636 861 L 1637 860 L 1637 812 L 1638 811 L 1638 763 L 1639 762 L 1640 664 L 1638 663 L 1624 662 L 1623 661 L 1613 661 L 1612 660 L 1579 659 Z M 507 801 L 506 802 L 495 802 L 494 803 L 487 803 L 471 806 L 448 813 Q 418 825 397 845 Q 370 870 356 907 L 349 928 L 344 950 L 342 971 L 341 972 L 341 986 L 340 987 L 340 1010 L 341 1011 L 342 1034 L 350 1072 Q 363 1115 391 1145 Q 412 1166 442 1179 L 455 1184 L 474 1189 L 492 1191 L 493 1192 L 503 1192 L 504 1193 L 537 1193 L 538 1192 L 548 1192 L 583 1185 Q 615 1175 639 1155 Q 665 1132 681 1099 L 691 1072 L 695 1056 L 698 1039 L 698 1032 L 699 1031 L 699 1022 L 700 1021 L 700 977 L 699 976 L 699 966 L 698 965 L 696 946 L 691 925 Q 678 880 650 851 Q 626 827 593 813 L 578 808 L 554 803 L 535 802 L 534 801 L 507 801 Z M 901 801 L 900 802 L 888 802 L 887 803 L 873 804 L 855 808 L 840 813 Q 820 821 805 833 Q 790 845 780 862 L 772 880 L 767 903 L 767 937 L 770 953 Q 776 974 789 988 Q 805 1003 828 1013 L 853 1022 L 906 1037 L 926 1047 Q 935 1052 936 1065 L 937 1068 L 936 1083 L 931 1092 Q 922 1102 909 1107 L 899 1110 L 878 1112 L 877 1113 L 860 1113 L 859 1112 L 847 1112 L 839 1110 L 833 1110 L 805 1103 L 779 1094 L 769 1120 L 764 1137 L 759 1164 L 759 1173 L 782 1181 L 805 1187 L 828 1191 L 850 1192 L 851 1193 L 891 1193 L 892 1192 L 910 1191 L 935 1186 Q 954 1180 971 1172 Q 986 1164 999 1153 Q 1018 1137 1029 1112 L 1035 1094 L 1037 1083 L 1037 1074 L 1038 1073 L 1037 1047 L 1033 1027 Q 1028 1008 1017 996 Q 1003 979 983 969 L 955 958 L 897 941 L 881 933 Q 872 929 871 918 L 870 915 L 870 906 L 872 898 L 875 894 Q 880 886 890 883 L 907 879 L 940 879 L 948 881 L 954 881 L 975 886 L 1002 896 L 1005 896 L 1012 881 L 1019 860 L 1024 837 L 1025 821 L 997 812 L 959 804 L 944 803 L 943 802 L 930 802 L 929 801 L 901 801 Z M 1134 806 L 1133 807 L 1109 809 L 1106 810 L 1106 1037 L 1107 1038 L 1107 1050 L 1108 1051 L 1108 1058 L 1112 1081 L 1119 1104 Q 1128 1128 1144 1147 Q 1162 1168 1191 1179 L 1218 1187 L 1245 1190 L 1246 1191 L 1255 1191 L 1256 1192 L 1270 1192 L 1271 1193 L 1315 1193 L 1316 1192 L 1329 1192 L 1330 1191 L 1355 1189 L 1391 1182 L 1422 1174 L 1432 1170 L 1433 1170 L 1433 810 L 1431 809 L 1407 807 L 1406 806 L 1358 806 L 1357 807 L 1340 808 L 1333 810 L 1331 811 L 1331 1102 L 1329 1103 L 1327 1103 L 1317 1106 L 1296 1107 L 1295 1108 L 1280 1108 L 1279 1107 L 1263 1106 L 1249 1102 L 1237 1095 Q 1223 1085 1217 1069 L 1212 1051 L 1211 1038 L 1210 1037 L 1210 1024 L 1209 1023 L 1209 810 L 1207 809 L 1183 807 L 1182 806 L 1134 806 Z M 1567 1073 L 1566 1074 L 1554 1074 L 1553 1075 L 1532 1077 L 1530 1079 Q 1532 1084 1529 1086 L 1528 1102 L 1527 1103 L 1527 1118 L 1526 1119 L 1526 1145 L 1527 1146 L 1527 1160 L 1528 1161 L 1530 1184 L 1547 1187 L 1572 1188 L 1573 1189 L 1612 1188 L 1613 1187 L 1637 1185 L 1638 1184 Q 1637 1179 1639 1178 L 1640 1163 L 1641 1162 L 1641 1149 L 1642 1148 L 1642 1115 L 1641 1114 L 1641 1101 L 1640 1100 L 1638 1079 L 1632 1076 L 1616 1075 L 1615 1074 L 1603 1074 L 1602 1073 L 1567 1073 Z " /><path fill="rgb(0,0,0)" stroke="rgb(0,0,0)" stroke-width="1" opacity="0" d="M 512.5 882 L 535.5 883 L 549.5 887 Q 563.2 892.8 572 903.5 L 584 923.5 L 592 951.5 L 593 963.5 L 594 964.5 L 594 973.5 L 595 974.5 L 595 1022.5 L 594 1023.5 L 594 1032.5 L 590 1054.5 L 584 1072.5 L 574 1090.5 L 563.5 1101 L 550.5 1109 L 537.5 1113 L 509.5 1114 L 498.5 1112 L 487.5 1108 L 470 1094.5 Q 462 1085.5 457 1073.5 L 449 1047.5 L 449 1042.5 L 447 1035.5 L 447 1027.5 L 446 1026.5 L 446 1013.5 L 445 1012.5 L 445 983.5 L 446 982.5 L 446 969.5 L 447 968.5 L 448 954.5 L 454 930.5 L 464 909.5 L 477.5 895 L 484.5 890 L 496.5 885 L 512.5 882 Z " /><path fill="rgb(0,0,0)" stroke="rgb(0,0,0)" stroke-width="1" opacity="0.9882352941176471" d="M 959.5 28 L 1041.5 28 L 1042.5 29 L 1061.5 29 L 1062.5 30 L 1075.5 30 L 1076.5 31 L 1107.5 33 L 1108.5 34 L 1115.5 34 L 1116.5 35 L 1152.5 39 L 1196.5 47 L 1251.5 60 L 1289.5 71 L 1347.5 91 Q 1447 129.5 1530.5 184 Q 1622.2 243.8 1697 320.5 Q 1763.7 388.8 1817 470.5 Q 1871.5 554 1910 653.5 L 1930 711.5 L 1941 749.5 L 1954 804.5 L 1962 848.5 L 1966 884.5 L 1967 885.5 L 1967 892.5 L 1968 893.5 L 1970 924.5 L 1971 925.5 L 1971 938.5 L 1972 939.5 L 1972 958.5 L 1973 959.5 L 1973 1041.5 L 1972 1042.5 L 1972 1061.5 L 1971 1062.5 L 1970 1087.5 L 1969 1088.5 L 1969 1097.5 L 1968 1098.5 L 1968 1107.5 L 1967 1108.5 L 1965 1131.5 L 1964 1132.5 L 1960 1164.5 L 1949 1219.5 Q 1925.5 1318.5 1887 1402.5 Q 1807.8 1573.8 1680.5 1697 Q 1612.2 1763.7 1530.5 1817 Q 1447 1871.5 1347.5 1910 L 1289.5 1930 L 1251.5 1941 L 1196.5 1954 L 1152.5 1962 L 1116.5 1966 L 1115.5 1967 L 1108.5 1967 L 1107.5 1968 L 1076.5 1970 L 1075.5 1971 L 1062.5 1971 L 1061.5 1972 L 1042.5 1972 L 1041.5 1973 L 959.5 1973 L 958.5 1972 L 939.5 1972 L 938.5 1971 L 913.5 1970 L 912.5 1969 L 903.5 1969 L 902.5 1968 L 893.5 1968 L 892.5 1967 L 869.5 1965 L 868.5 1964 L 836.5 1960 L 781.5 1949 Q 682.5 1925.5 598.5 1887 Q 427.2 1807.8 304 1680.5 Q 237.3 1612.2 184 1530.5 Q 129.5 1447 91 1347.5 L 71 1289.5 L 60 1251.5 L 47 1196.5 L 39 1152.5 L 35 1116.5 L 34 1115.5 L 34 1108.5 L 33 1107.5 L 31 1076.5 L 30 1075.5 L 30 1062.5 L 29 1061.5 L 29 1042.5 L 28 1041.5 L 28 959.5 L 29 958.5 L 29 939.5 L 30 938.5 L 31 913.5 L 32 912.5 L 32 903.5 L 33 902.5 L 33 893.5 L 34 892.5 L 36 869.5 L 37 868.5 L 41 836.5 L 52 781.5 Q 75.5 682.5 114 598.5 Q 193.2 427.2 320.5 304 Q 444.8 181.3 616.5 106 Q 661.9 86.4 711.5 71 L 781.5 52 L 814.5 45 L 819.5 45 L 848.5 39 L 868.5 37 L 869.5 36 L 876.5 36 L 893.5 33 L 902.5 33 L 903.5 32 L 912.5 32 L 913.5 31 L 938.5 30 L 939.5 29 L 958.5 29 L 959.5 28 Z M 986 125 L 985 126 L 940 127 L 939 128 L 927 128 L 926 129 L 898 131 L 897 132 L 890 132 L 868 136 L 862 136 L 819 144 L 777 154 L 739 165 Q 697 178 660 194 Q 511 258 403 361 Q 273 480 197 653 Q 179 694 165 739 L 154 777 L 144 819 L 136 862 L 133 889 L 132 890 L 132 897 L 131 898 L 129 926 L 128 927 L 128 939 L 127 940 L 126 985 L 125 986 L 125 1015 L 126 1016 L 126 1044 L 127 1045 L 128 1074 L 129 1075 L 131 1103 L 132 1104 L 133 1119 L 134 1120 L 138 1151 L 148 1200 L 157 1235 L 182 1311 Q 212 1389 253 1456 Q 300 1533 361 1598 Q 480 1727 653 1803 Q 694 1821 739 1835 L 777 1846 L 819 1856 L 862 1864 L 889 1867 L 890 1868 L 897 1868 L 898 1869 L 926 1871 L 927 1872 L 939 1872 L 940 1873 L 985 1874 L 986 1875 L 1015 1875 L 1016 1874 L 1044 1874 L 1045 1873 L 1074 1872 L 1075 1871 L 1103 1869 L 1104 1868 L 1119 1867 L 1120 1866 L 1151 1862 L 1200 1852 L 1235 1843 L 1311 1818 Q 1389 1788 1456 1747 Q 1533 1700 1598 1639 Q 1727 1520 1803 1348 Q 1821 1306 1835 1262 L 1846 1224 L 1856 1182 L 1864 1139 L 1867 1112 L 1868 1111 L 1868 1104 L 1869 1103 L 1871 1075 L 1872 1074 L 1872 1062 L 1873 1061 L 1874 1016 L 1875 1015 L 1875 986 L 1874 985 L 1874 957 L 1873 956 L 1872 927 L 1871 926 L 1869 898 L 1868 897 L 1867 882 L 1866 881 L 1862 850 L 1852 801 L 1843 766 L 1818 690 Q 1788 611 1747 545 Q 1700 467 1639 403 Q 1517 271 1341 194 L 1292 175 L 1249 161 L 1200 148 L 1162 140 L 1127 135 L 1126 134 L 1120 134 L 1119 133 L 1086 130 L 1085 129 L 1075 129 L 1074 128 L 1045 127 L 1044 126 L 1016 126 L 1015 125 L 986 125 Z " /><path fill="rgb(0,0,0)" stroke="rgb(0,0,0)" stroke-width="1" opacity="0.9882352941176471" d="M 1578.5 659 L 1611.5 660 L 1612.5 661 L 1622.5 661 L 1623.5 662 L 1637.5 663 L 1640 664 L 1639 761.5 L 1638 762.5 L 1638 810.5 L 1637 811.5 L 1637 859.5 L 1636 860.5 L 1636 908.5 L 1635 909.5 L 1635 957.5 L 1634 958.5 L 1634 1006.5 L 1633 1007.5 L 1633 1018 L 1615.5 1021 L 1606.5 1021 L 1605.5 1022 L 1562.5 1022 L 1561.5 1021 L 1552.5 1021 L 1535 1018 L 1535 998.5 L 1534 997.5 L 1534 949.5 L 1533 948.5 L 1533 900.5 L 1532 899.5 L 1532 851.5 L 1531 850.5 L 1531 802.5 L 1530 801.5 L 1530 753.5 L 1529 752.5 L 1528 664 L 1545.5 661 L 1577.5 660 L 1578.5 659 Z " /><path fill="rgb(0,0,0)" stroke="rgb(0,0,0)" stroke-width="1" opacity="0.9882352941176471" d="M 506.5 801 L 533.5 801 L 534.5 802 L 553.5 803 L 577.5 808 L 592.5 813 Q 626.5 826.5 650 850.5 Q 678.3 879.7 691 924.5 L 696 945.5 L 698 964.5 L 699 965.5 L 699 975.5 L 700 976.5 L 700 1020.5 L 699 1021.5 L 699 1030.5 L 698 1031.5 L 698 1038.5 L 695 1055.5 L 691 1071.5 L 681 1098.5 Q 665.3 1132.3 638.5 1155 Q 615.1 1174.6 582.5 1185 L 547.5 1192 L 537.5 1192 L 536.5 1193 L 503.5 1193 L 502.5 1192 L 492.5 1192 L 491.5 1191 L 473.5 1189 L 454.5 1184 L 441.5 1179 Q 411.7 1166.3 391 1144.5 Q 363.3 1115.2 350 1071.5 L 342 1033.5 L 341 1010.5 L 340 1009.5 L 340 986.5 L 341 985.5 L 341 971.5 L 342 970.5 L 344 949.5 L 349 927.5 L 356 906.5 Q 370.4 869.9 396.5 845 Q 417.9 824.9 447.5 813 L 470.5 806 L 486.5 803 L 493.5 803 L 494.5 802 L 505.5 802 L 506.5 801 Z M 513 882 L 497 885 L 485 890 L 478 895 L 464 910 L 454 931 L 448 955 L 447 969 L 446 970 L 446 983 L 445 984 L 445 1013 L 446 1014 L 446 1027 L 447 1028 L 447 1036 L 449 1043 L 449 1048 L 457 1074 Q 462 1085 470 1095 L 488 1108 L 499 1112 L 510 1114 L 538 1113 L 551 1109 L 564 1101 L 574 1091 L 584 1073 L 590 1055 L 594 1033 L 594 1024 L 595 1023 L 595 975 L 594 974 L 594 965 L 593 964 L 592 952 L 584 924 L 572 904 Q 563 893 550 887 L 536 883 L 513 882 Z " /><path fill="rgb(0,0,0)" stroke="rgb(0,0,0)" stroke-width="1" opacity="0.9882352941176471" d="M 900.5 801 L 928.5 801 L 929.5 802 L 942.5 802 L 943.5 803 L 958.5 804 L 996.5 812 L 1025 821 L 1024 836.5 L 1019 859.5 L 1012 880.5 L 1005 896 L 1001.5 896 L 974.5 886 L 953.5 881 L 947.5 881 L 939.5 879 L 906.5 879 L 889.5 883 Q 880.2 886.2 875 893.5 L 872 897.5 L 870 905.5 L 870 914.5 L 871 917.5 Q 872 929 880.5 933 L 896.5 941 L 954.5 958 L 982.5 969 Q 1003.3 978.7 1017 995.5 Q 1027.6 1008.4 1033 1026.5 L 1037 1046.5 L 1038 1072.5 L 1037 1073.5 L 1037 1082.5 L 1035 1093.5 L 1029 1111.5 Q 1018.1 1136.6 998.5 1153 Q 986 1164 970.5 1172 Q 953.9 1180.4 934.5 1186 L 909.5 1191 L 891.5 1192 L 890.5 1193 L 850.5 1193 L 849.5 1192 L 827.5 1191 L 804.5 1187 L 781.5 1181 L 759 1173 L 759 1163.5 L 764 1136.5 L 769 1119.5 L 779 1094 L 804.5 1103 L 832.5 1110 L 838.5 1110 L 846.5 1112 L 858.5 1112 L 859.5 1113 L 876.5 1113 L 877.5 1112 L 898.5 1110 L 908.5 1107 Q 922.1 1101.6 931 1091.5 L 936 1082.5 L 937 1067.5 L 936 1064.5 Q 934.6 1051.9 925.5 1047 L 905.5 1037 L 852.5 1022 L 827.5 1013 Q 805.1 1003.4 789 987.5 Q 775.6 973.9 770 952.5 L 767 936.5 L 767 902.5 L 772 879.5 L 780 861.5 Q 789.8 844.8 804.5 833 Q 819.6 820.6 839.5 813 L 854.5 808 L 872.5 804 L 886.5 803 L 887.5 802 L 899.5 802 L 900.5 801 Z " /><path fill="rgb(0,0,0)" stroke="rgb(0,0,0)" stroke-width="1" opacity="0.9882352941176471" d="M 1133.5 806 L 1181.5 806 L 1182.5 807 L 1206.5 809 L 1209 810 L 1209 1022.5 L 1210 1023.5 L 1210 1036.5 L 1211 1037.5 L 1212 1050.5 L 1217 1068.5 Q 1223.3 1085.3 1236.5 1095 L 1248.5 1102 L 1262.5 1106 L 1278.5 1107 L 1279.5 1108 L 1294.5 1108 L 1295.5 1107 L 1316.5 1106 L 1326.5 1103 L 1328.5 1103 L 1331 1101.5 L 1331 810.5 L 1332.5 810 L 1339.5 808 L 1356.5 807 L 1357.5 806 L 1405.5 806 L 1406.5 807 L 1430.5 809 L 1433 810 L 1433 1169.5 L 1431.5 1170 L 1421.5 1174 L 1390.5 1182 L 1354.5 1189 L 1329.5 1191 L 1328.5 1192 L 1315.5 1192 L 1314.5 1193 L 1270.5 1193 L 1269.5 1192 L 1255.5 1192 L 1254.5 1191 L 1245.5 1191 L 1244.5 1190 L 1217.5 1187 L 1190.5 1179 Q 1162.3 1167.7 1144 1146.5 Q 1128.3 1128.2 1119 1103.5 L 1112 1080.5 L 1108 1057.5 L 1108 1050.5 L 1107 1049.5 L 1107 1037.5 L 1106 1036.5 L 1106 810 L 1108.5 809 L 1132.5 807 L 1133.5 806 Z " /><path fill="rgb(0,0,0)" stroke="rgb(0,0,0)" stroke-width="1" opacity="0.9882352941176471" d="M 1566.5 1073 L 1601.5 1073 L 1602.5 1074 L 1614.5 1074 L 1615.5 1075 L 1631.5 1076 L 1638 1078.5 L 1640 1099.5 L 1641 1100.5 L 1641 1113.5 L 1642 1114.5 L 1642 1147.5 L 1641 1148.5 L 1641 1161.5 L 1640 1162.5 L 1639 1177.5 Q 1636.8 1178.8 1638 1183.5 L 1636.5 1185 L 1612.5 1187 L 1611.5 1188 L 1572.5 1189 L 1571.5 1188 L 1546.5 1187 L 1530 1184 L 1528 1160.5 L 1527 1159.5 L 1527 1145.5 L 1526 1144.5 L 1526 1118.5 L 1527 1117.5 L 1527 1102.5 L 1528 1101.5 L 1529 1085.5 Q 1531.5 1084 1530 1078.5 L 1531.5 1077 L 1552.5 1075 L 1553.5 1074 L 1565.5 1074 L 1566.5 1073 Z " /></svg>